<mxfile host="app.diagrams.net" modified="2023-08-02T11:25:30.623Z" agent="Mozilla/5.0 (Windows NT 10.0; Win64; x64) AppleWebKit/537.36 (KHTML, like Gecko) Chrome/115.0.0.0 Safari/537.36" etag="bNqzF27K748qDQ7ApfKE" version="21.6.6" type="github">
  <diagram name="Страница 1" id="vTOe-qVwRBOHW_UJXA64">
    <mxGraphModel dx="1050" dy="630" grid="1" gridSize="10" guides="1" tooltips="1" connect="1" arrows="1" fold="1" page="1" pageScale="1" pageWidth="850" pageHeight="1100" math="0" shadow="0">
      <root>
        <mxCell id="0" />
        <mxCell id="1" parent="0" />
        <mxCell id="70O8S8l9ECPlz24rTxJE-2" value="start" style="ellipse;whiteSpace=wrap;html=1;" vertex="1" parent="1">
          <mxGeometry x="60" y="30" width="120" height="80" as="geometry" />
        </mxCell>
        <mxCell id="70O8S8l9ECPlz24rTxJE-3" value="" style="endArrow=classic;html=1;rounded=0;exitX=0.5;exitY=1;exitDx=0;exitDy=0;entryX=0.5;entryY=0;entryDx=0;entryDy=0;" edge="1" parent="1" source="70O8S8l9ECPlz24rTxJE-2" target="70O8S8l9ECPlz24rTxJE-5">
          <mxGeometry width="50" height="50" relative="1" as="geometry">
            <mxPoint x="400" y="270" as="sourcePoint" />
            <mxPoint x="380" y="160" as="targetPoint" />
          </mxGeometry>
        </mxCell>
        <mxCell id="70O8S8l9ECPlz24rTxJE-5" value="telegramClientId" style="shape=parallelogram;perimeter=parallelogramPerimeter;whiteSpace=wrap;html=1;fixedSize=1;" vertex="1" parent="1">
          <mxGeometry x="60" y="140" width="120" height="60" as="geometry" />
        </mxCell>
        <mxCell id="70O8S8l9ECPlz24rTxJE-7" value="" style="endArrow=classic;html=1;rounded=0;exitX=0.5;exitY=1;exitDx=0;exitDy=0;" edge="1" parent="1" source="70O8S8l9ECPlz24rTxJE-5">
          <mxGeometry width="50" height="50" relative="1" as="geometry">
            <mxPoint x="400" y="270" as="sourcePoint" />
            <mxPoint x="120" y="230" as="targetPoint" />
          </mxGeometry>
        </mxCell>
        <mxCell id="70O8S8l9ECPlz24rTxJE-20" style="edgeStyle=orthogonalEdgeStyle;rounded=0;orthogonalLoop=1;jettySize=auto;html=1;exitX=1;exitY=0.5;exitDx=0;exitDy=0;" edge="1" parent="1" source="70O8S8l9ECPlz24rTxJE-9">
          <mxGeometry relative="1" as="geometry">
            <mxPoint x="260" y="255" as="targetPoint" />
          </mxGeometry>
        </mxCell>
        <mxCell id="70O8S8l9ECPlz24rTxJE-24" style="edgeStyle=orthogonalEdgeStyle;rounded=0;orthogonalLoop=1;jettySize=auto;html=1;exitX=0;exitY=0.5;exitDx=0;exitDy=0;entryX=0.403;entryY=1.042;entryDx=0;entryDy=0;entryPerimeter=0;" edge="1" parent="1" source="70O8S8l9ECPlz24rTxJE-9" target="70O8S8l9ECPlz24rTxJE-11">
          <mxGeometry relative="1" as="geometry">
            <mxPoint x="152" y="580" as="targetPoint" />
            <Array as="points">
              <mxPoint x="10" y="255" />
              <mxPoint x="10" y="600" />
              <mxPoint x="153" y="600" />
            </Array>
          </mxGeometry>
        </mxCell>
        <mxCell id="70O8S8l9ECPlz24rTxJE-9" value="i=0, clents.cout&lt;br&gt;users.count" style="shape=hexagon;perimeter=hexagonPerimeter2;whiteSpace=wrap;html=1;fixedSize=1;" vertex="1" parent="1">
          <mxGeometry x="80" y="230" width="150" height="50" as="geometry" />
        </mxCell>
        <mxCell id="70O8S8l9ECPlz24rTxJE-26" value="yes" style="edgeStyle=orthogonalEdgeStyle;rounded=0;orthogonalLoop=1;jettySize=auto;html=1;exitX=0;exitY=0.5;exitDx=0;exitDy=0;" edge="1" parent="1" source="70O8S8l9ECPlz24rTxJE-10">
          <mxGeometry relative="1" as="geometry">
            <mxPoint x="150" y="580" as="targetPoint" />
            <Array as="points">
              <mxPoint x="40" y="385" />
              <mxPoint x="40" y="580" />
            </Array>
          </mxGeometry>
        </mxCell>
        <mxCell id="70O8S8l9ECPlz24rTxJE-10" value="users[i].TelegramClientId != telegramClientId&lt;br&gt;clients[i].TelegramClientId != telegramClientId" style="rhombus;whiteSpace=wrap;html=1;" vertex="1" parent="1">
          <mxGeometry x="60" y="300" width="210" height="170" as="geometry" />
        </mxCell>
        <mxCell id="70O8S8l9ECPlz24rTxJE-11" value="var user = new user({&lt;br&gt;TelegramClientId = telegramClientID });" style="shape=parallelogram;perimeter=parallelogramPerimeter;whiteSpace=wrap;html=1;fixedSize=1;" vertex="1" parent="1">
          <mxGeometry x="80" y="500" width="180" height="60" as="geometry" />
        </mxCell>
        <mxCell id="70O8S8l9ECPlz24rTxJE-12" value="database" style="shape=cylinder3;whiteSpace=wrap;html=1;boundedLbl=1;backgroundOutline=1;size=15;" vertex="1" parent="1">
          <mxGeometry x="730" y="210" width="60" height="80" as="geometry" />
        </mxCell>
        <mxCell id="70O8S8l9ECPlz24rTxJE-14" value="" style="endArrow=none;html=1;rounded=0;entryX=0.5;entryY=0;entryDx=0;entryDy=0;entryPerimeter=0;" edge="1" parent="1" target="70O8S8l9ECPlz24rTxJE-12">
          <mxGeometry width="50" height="50" relative="1" as="geometry">
            <mxPoint x="120" y="210" as="sourcePoint" />
            <mxPoint x="450" y="220" as="targetPoint" />
            <Array as="points">
              <mxPoint x="200" y="210" />
              <mxPoint x="200" y="40" />
              <mxPoint x="760" y="40" />
            </Array>
          </mxGeometry>
        </mxCell>
        <mxCell id="70O8S8l9ECPlz24rTxJE-16" value="" style="endArrow=none;html=1;rounded=0;exitX=0.5;exitY=0;exitDx=0;exitDy=0;" edge="1" parent="1" source="70O8S8l9ECPlz24rTxJE-10">
          <mxGeometry width="50" height="50" relative="1" as="geometry">
            <mxPoint x="130" y="290" as="sourcePoint" />
            <mxPoint x="129.5" y="280" as="targetPoint" />
            <Array as="points" />
          </mxGeometry>
        </mxCell>
        <mxCell id="70O8S8l9ECPlz24rTxJE-17" value="" style="endArrow=none;html=1;rounded=0;entryX=0.5;entryY=1;entryDx=0;entryDy=0;" edge="1" parent="1" target="70O8S8l9ECPlz24rTxJE-10">
          <mxGeometry width="50" height="50" relative="1" as="geometry">
            <mxPoint x="164.5" y="500" as="sourcePoint" />
            <mxPoint x="165" y="480" as="targetPoint" />
          </mxGeometry>
        </mxCell>
      </root>
    </mxGraphModel>
  </diagram>
</mxfile>
